<?xml version="1.0" encoding="UTF-8"?>
<svg id="Layer_2" xmlns="http://www.w3.org/2000/svg" xmlns:xlink="http://www.w3.org/1999/xlink" viewBox="0 0 375 375">
  <defs>
    <style>
      .cls-1 {
        fill: none;
      }

      .cls-2 {
        fill: #00438c;
      }

      .cls-3 {
        fill: #da1a32;
      }

      .cls-4 {
        fill: #b5b3b3;
      }

      .cls-5 {
        clip-path: url(#clippath-1);
      }

      .cls-6 {
        fill: #fff;
      }

      .cls-7 {
        clip-path: url(#clippath);
      }
    </style>
    <clipPath id="clippath">
      <rect class="cls-1" width="375" height="375"/>
    </clipPath>
    <clipPath id="clippath-1">
      <rect class="cls-1" width="375" height="375"/>
    </clipPath>
  </defs>
  <g id="Layer_1-2" data-name="Layer_1">
    <g id="Detroit_Pistons_Primary_logo_-_full_color">
      <g class="cls-7">
        <g class="cls-5">
          <path class="cls-4" d="M375,187.5c0,103.55-83.95,187.5-187.5,187.5S0,291.05,0,187.5,83.94,0,187.5,0s187.5,83.95,187.5,187.5"/>
          <path class="cls-2" d="M369.62,187.5c0,100.58-81.54,182.12-182.12,182.12S5.38,288.08,5.38,187.5,86.92,5.38,187.5,5.38s182.12,81.54,182.12,182.12"/>
          <path class="cls-3" d="M342.8,187.5c0,85.76-69.53,155.29-155.3,155.29S32.2,273.26,32.2,187.5,101.73,32.2,187.5,32.2s155.3,69.53,155.3,155.3"/>
          <path class="cls-6" d="M187.5,32.2c-85.63,0-155.3,69.67-155.3,155.3s69.67,155.3,155.3,155.3,155.3-69.66,155.3-155.3S273.13,32.2,187.5,32.2M41.22,192.07h28.58v-9.14h-28.58c.11-3.46.29-6.9.64-10.29,10.13-50.99,71.56-90.34,145.64-90.34s135.51,39.35,145.64,90.35c.34,3.39.53,6.83.63,10.29h-28.58v9.14h28.58c-.1,3.46-.29,6.9-.63,10.29-10.13,50.99-71.57,90.34-145.64,90.34S51.99,253.35,41.86,202.36c-.35-3.39-.53-6.83-.64-10.29M187.5,41.11c62.03,0,115.13,38.79,136.42,93.38-26.03-35.62-77.4-59.93-136.42-59.93s-110.39,24.31-136.42,59.93c21.28-54.59,74.39-93.38,136.42-93.38M187.5,333.89c-62.03,0-115.13-38.79-136.41-93.37,26.03,35.62,77.4,59.93,136.41,59.93s110.39-24.3,136.42-59.93c-21.28,54.58-74.39,93.37-136.42,93.37"/>
          <rect class="cls-6" x="121.88" y="191.56" width="10.98" height="49.34"/>
          <path class="cls-6" d="M163.97,191.58h-.33c-3.09-.02-14.3-.07-16.45-.02l-.56.03c-3.31,0-5.42,1.57-5.94,4.43-.09.46-.1.82-.09.82-.01.1-.76,9.35.15,11.96,1.47,4.25,4.9,5.82,8.05,6.79.1.03.21.06.33.09.2.05.41.11.61.19.35.14.59.33.74.57l.05,17.77-9.07.03.03,6.57h11.92s0,.01,0,.01c4.14-.18,6.99-1.99,8.05-5.12.3-2.41.34-18.95.1-22.41-.07-1.3-.67-2.35-1.88-3.3-.47-.36-1.05-.73-1.78-1.15-.65-.34-1.36-.68-2.03-1-2.58-1.26-5.5-2.69-5.5-5.97v-2.81s8.63,0,8.63,0c1.77,0,3.18-.86,4.1-2.5.69-1.25.88-2.5.88-2.57.07-.81.03-1.57,0-2.07l-.02-.33Z"/>
          <path class="cls-6" d="M214.17,191.54c-2.47,0-5.05.08-7.13.67-5.38,1.3-7.99,4.89-7.99,10.99v29.35c0,7.52,5.38,9.06,13.45,9.06,9.78,0,15.4-3.46,15.4-9.48l.02-30.59c0-10-6.37-10-13.74-10M210.55,202.66c.05-1.3.16-2.28.34-3.05l.2-.19c.49-.08.97-.11,1.55-.11h.22c3.73.05,3.83,1.17,3.83,7.9v20.6c0,.62,0,1.19-.04,1.81-.03.59-.09,1.15-.2,1.66l-.2.2c-.65.1-1.28.15-1.96.15-1.36,0-2.32-.3-2.91-.91-.87-.9-.9-2.41-.85-4.15v-20.81s-.02-2.31.02-3.11"/>
          <path class="cls-6" d="M253.37,212.52c-5.25-19-13.66-21.11-17.15-21.11-.91,0-1.45.14-1.48.15l-.26.07v49.3s11.12.01,11.12.01v-19.83l7.75,19.83h11.3v-49.34h-11.28v20.92Z"/>
          <path class="cls-6" d="M108.51,191.54l-27.72.04h-.34s-.02.34-.02.34c0,.06-.24,5.87,6.25,7.22v41.77h11.37v-20.99h9.56c5.05,0,7.94-3.32,7.94-9.11l.02-1.77c0-13.98-.57-16.78-7.07-17.5M104.07,213.45h-6.18s0-14.32,0-14.32c0,0,3.36-.06,3.86,0,1.22.16,2.35.63,2.35,2.1,0,.48-.03,12.23-.03,12.23"/>
          <path class="cls-6" d="M195.64,191.62h-25.71v7.76h7.33v41.61h11.3s.01-41.65.01-41.65c.14,0,.28,0,.41,0,2.02,0,3.63-.62,4.78-1.83,2.05-2.16,1.91-5.41,1.9-5.55l-.02-.34Z"/>
          <path class="cls-6" d="M294.59,191.58h-.33c-3.09-.02-14.3-.07-16.45-.02l-.56.03c-3.31,0-5.42,1.57-5.93,4.43-.1.46-.1.82-.1.82,0,.1-.76,9.35.15,11.96,1.47,4.25,4.9,5.82,8.05,6.79.11.03.21.06.33.09.2.05.41.11.61.19.35.14.59.33.74.57l.04,17.77-9.07.03.03,6.57h11.92s0,.01,0,.01c4.14-.18,6.99-1.99,8.05-5.12.29-2.41.34-18.95.1-22.41-.08-1.3-.67-2.35-1.88-3.3-.47-.36-1.05-.73-1.78-1.15-.65-.34-1.36-.68-2.03-1-2.58-1.26-5.5-2.69-5.5-5.97v-2.81s8.63,0,8.63,0c1.77,0,3.18-.86,4.1-2.5.69-1.25.88-2.5.88-2.57.07-.81.04-1.57,0-2.07l-.02-.33Z"/>
          <path class="cls-6" d="M193.71,161.11h1.91c1.83.04,4.91.6,4.91,3.9,0,1.58.14,6.51.19,8.36l.02.74c.01.28.13,2.69.25,3.15.79,2.87,3.02,4.6,6.51,4.97h3.22v-17.56c0-1.51-.82-3.62-2-5.13l-.23-.32c1.76-1.98,2.45-3.98,2.45-7.03v-1.72c.01-13.64-.53-16.37-6.87-17.07h-21.34v48.15h10.98v-20.45ZM193.74,140.98h1.87s.3,0,.3,0c2.87.05,3.95.06,3.87,5.13,0,4.03,0,4.29-.08,6.28v.38c0,.58-.25,1.23-.62,1.61-.26.27-.57.4-.92.4h-4.42v-13.8Z"/>
          <polygon class="cls-6" points="261.86 133.41 251.16 133.41 251.12 181.54 261.86 181.55 261.86 133.41"/>
          <path class="cls-6" d="M159.05,181.61l11.02-.02v-40.68c.15,0,.28,0,.42,0,1.98,0,3.55-.6,4.68-1.79,2-2.1,1.85-5.27,1.84-5.4l-.02-.32h-25.09v7.56h7.15v40.64Z"/>
          <path class="cls-6" d="M274.65,181.61l11.03-.02v-40.68c.14,0,.28,0,.4,0,1.99,0,3.56-.6,4.69-1.79,2-2.1,1.85-5.27,1.85-5.4l-.02-.32h-25.09v7.56h7.14v40.64Z"/>
          <polygon class="cls-6" points="146.14 173.82 134.59 173.82 134.59 162.13 142.51 162.13 142.51 151.65 134.59 151.65 134.59 140.81 146.14 140.81 146.14 133.41 123.89 133.41 123.85 181.54 146.14 181.54 146.14 173.82"/>
          <path class="cls-6" d="M109.89,133.41h-27.44l-.04.29c-.02.12-.35,2.88,1.43,4.99,1.13,1.34,2.85,2.09,5.14,2.24v40.54h20.44c4.66,0,7.79-3.96,7.79-9.85v-22.33c.02-12.32.02-15.64-7.32-15.88M106.08,173.82h-6.1v-32.86c3.78-.16,4.58.18,4.64.2,1.42.56,1.4,3.2,1.4,3.27.4,3.81.1,26.37.06,29.39"/>
          <path class="cls-6" d="M231.63,133.41c-2.45,0-5.01.08-7.07.65-5.34,1.27-7.93,4.79-7.93,10.75v28.73c0,7.36,5.34,8.86,13.35,8.86,9.71,0,15.28-3.38,15.28-9.27l.02-29.94c0-9.78-6.32-9.78-13.64-9.78M228.04,144.3c.05-1.27.16-2.23.34-2.99l.2-.18c.48-.07.96-.11,1.53-.11h.22c3.7.05,3.8,1.14,3.8,7.74v20.16c0,.6,0,1.17-.04,1.77-.03.58-.1,1.12-.2,1.63l-.2.19c-.64.1-1.27.14-1.95.14-1.35,0-2.29-.29-2.88-.89-.87-.88-.89-2.36-.84-4.06v-20.36s-.02-2.26.02-3.04"/>
        </g>
      </g>
    </g>
  </g>
</svg>